/* XPM */
static char *result[] = {
/* columns rows colors chars-per-pixel */
"35 32 130 2 ",
"   c #7E613A",
".  c #8D711D",
"X  c #B6A115",
"o  c #B09738",
"O  c #C1AC06",
"+  c #C7B105",
"@  c #CCB505",
"#  c #CEB90E",
"$  c #D0B905",
"%  c #D6BF0A",
"&  c #C1AD16",
"*  c #C2AF1B",
"=  c #CDB91F",
"-  c #C5B322",
";  c #C4B329",
":  c #CEBC38",
">  c #DEC603",
",  c #DCCB09",
"<  c #DCCC1D",
"1  c #E4CB04",
"2  c #E2CA0F",
"3  c #E9CE0D",
"4  c #E4D405",
"5  c #ECD303",
"6  c #EDD902",
"7  c #F3DA04",
"8  c #F9DE02",
"9  c #F4DC0D",
"0  c #E0D016",
"q  c #EAD512",
"w  c #EED914",
"e  c #E6D31D",
"r  c #ECDA1D",
"t  c #F0DD1C",
"y  c #FEE102",
"u  c #FDE20D",
"i  c #FDE314",
"p  c #FEE41C",
"a  c #D7C42C",
"s  c #E0CD22",
"d  c #E3D424",
"f  c #E5D42B",
"g  c #E6D82F",
"h  c #E9D82F",
"j  c #E7D932",
"k  c #E2D239",
"l  c #E6D93D",
"z  c #F1DB34",
"x  c #FEE522",
"c  c #F6E22D",
"v  c #FFE732",
"b  c #FEE73A",
"n  c #FEE83A",
"m  c #CFC14D",
"M  c #DCCC48",
"N  c #D3C456",
"B  c #DECC5D",
"V  c #E4D545",
"C  c #E9DA47",
"Z  c #E1D048",
"A  c #E8D84F",
"S  c #E7DC53",
"D  c #EDDF55",
"F  c #F4E447",
"G  c #FDE740",
"H  c #FDE943",
"J  c #FDEA4C",
"K  c #F4E554",
"L  c #FDEA54",
"P  c #F0E05F",
"I  c #FCEB5B",
"U  c #D6C964",
"Y  c #DBCB79",
"T  c #F3E665",
"R  c #F6E863",
"E  c #FBEC65",
"W  c #F3E669",
"Q  c #FBEC6D",
"!  c #FDEE73",
"~  c #F2E87C",
"^  c #FDEF7B",
"/  c #FDF07C",
"(  c #D8CD8E",
")  c #DED383",
"_  c #DDD48F",
"`  c #D8CE96",
"'  c #D5CA9D",
"]  c #DED59D",
"[  c #E0D78E",
"{  c #E5DD99",
"}  c #F3EA8B",
"|  c #FDF183",
" . c #FDF28E",
".. c #EEE796",
"X. c #ECE49C",
"o. c #F2EB96",
"O. c #F8EE91",
"+. c #F5EE9F",
"@. c #FDF394",
"#. c #FEF49A",
"$. c #D6CBAF",
"%. c #DCD4B7",
"&. c #E6DFAB",
"*. c #E6E0A6",
"=. c #E9E1A4",
"-. c #ECE5AB",
";. c #FCF4A9",
":. c #E7E1B4",
">. c #EAE4B5",
",. c #F0EAB9",
"<. c #FDF6B5",
"1. c #FDF6BB",
"2. c #ECE9C7",
"3. c #F1EBC7",
"4. c #F1ECCB",
"5. c #FEF8C2",
"6. c #F6F3CC",
"7. c #FCF7CF",
"8. c #FEF9CC",
"9. c #E6E0D2",
"0. c #EEEBD2",
"q. c #EBE6DF",
"w. c #F5F2DA",
"e. c #F8F6DF",
"r. c #FEFADB",
"t. c #EDEAE6",
"y. c #F8F6E5",
"u. c #FDFBED",
"i. c #FDFCF4",
"p. c #FFFFFF",
/* pixels */
"p.p.p.p.p.p.p.p.p.p.p.p.p.p.p.p.p.p.p.p.p.p.p.p.p.p.p.p.p.p.p.p.p.p.p.",
"p.p.p.p.p.p.p.p.p.p.p.p.p.p.p.p.p.p.p.p.p.p.p.p.p.p.p.p.p.p.p.p.p.p.p.",
"p.p.p.p.p.p.p.p.p.p.i.` ] i.p.p.p.p.p.p.p.p.p.p.p.p.p.p.p.p.p.p.p.p.p.",
"p.p.p.p.p.p.p.p.p.p.%.X ( p.p.p.p.p.p.p.p.p.p.p.p.p.p.p.p.p.p.p.p.p.p.",
"p.p.p.p.p.p.p.p.p.p.  . ' p.p.p.p.p.p.p.p.p.p.p.p.p.p.p.p.p.p.p.p.p.p.",
"p.p.p.p.p.p.p.p.p.i.& * X.p.p.p.p.p.p.p.p.p.p.p.p.p.p.p.p.p.p.p.p.p.p.",
"p.p.p.p.p.p.p.p.p.6., 0 ..p.p.p.p.p.p.p.p.p.p.p.p.p.p.p.p.p.p.p.p.p.p.",
"p.p.p.p.p.p.p.p.u.l < d o.i.p.p.p.p.p.p.p.p.p.p.p.p.p.p.p.p.p.p.p.p.p.",
"p.p.p.p.p.p.p.p.+.2 k g } u.p.p.p.p.p.p.p.p.p.p.p.p.p.p.p.p.p.p.p.p.p.",
"p.p.p.p.p.p.p.i.S 4 V j ~ 6.p.p.p.p.p.p.p.p.p.p.p.p.p.p.p.p.p.p.p.p.p.",
"p.p.p.p.p.p.p.e.l 4 A g W ;.i.p.p.p.p.p.p.p.p.p.q.p.p.p.p.p.p.p.p.p.p.",
"p.p.p.p.p.p.p.6.g 4 P f W O.r.p.p.p.p.p.p.p.p.p.Y u.p.p.p.p.p.p.p.p.p.",
"p.p.p.p.p.p.p.,.d 4 Q d Q T ;.u.p.p.p.p.p.p.p.8.G i.p.p.p.p.p.p.p.p.p.",
"p.p.p.p.p.p.p.-.d 6 ~ s R K | 1.u.p.p.p.p.p.r.^ H p.p.p.p.p.p.p.p.p.p.",
"p.p.p.p.p.p.p.=.e 6 Q f F | H  .1.r.u.i.u.7. .n ! p.p.p.p.p.p.p.p.p.p.",
"p.p.p.p.p.p.p.=.e y K C r / R n ^ <.<.1.1.^ b v 5.p.p.p.p.p.p.p.p.p.p.",
"p.p.p.p.p.p.p.&.e 7 c T q L #.L v n L J n v v J u.p.9.t.p.p.p.p.p.p.p.",
"p.p.p.p.p.p.p.>.s 7 u Q h 9 Q  .L v v v v v v @.i.7.B $.p.p.p.p.p.p.p.",
"p.p.p.p.p.p.p.2.a 8 y L D w i ^  .E n v v v I 8.1.Q z 3.p.p.p.p.p.p.p.",
"p.p.p.p.p.p.p.w.: 8 y p ! f 8 u ! @.@.I H H / @.Q y Z u.p.p.p.p.p.p.p.",
"p.p.p.p.p.p.p.u.m 5 y u J W r y u H Q / | / Q n u 9 { p.p.p.p.p.p.p.p.",
"p.p.p.p.p.p.p.p.) # y y i I Q t y y u p p i u 3 8 = y.p.p.p.p.p.p.p.p.",
"p.p.p.p.p.p.p.p.4.& 7 y y i Q ^ c y y y y u n o X =.p.p.p.p.p.p.p.p.p.",
"p.p.p.p.p.p.p.p.i.; $ 8 y y u I ! Q H n J E H 2 N p.p.p.p.p.p.p.p.p.p.",
"p.p.p.p.p.p.p.p.p.&.X 1 y y y y x n L L G x 7 M e.p.p.p.p.p.p.p.p.p.p.",
"p.p.p.p.p.p.p.p.p.p.= + 5 y y y y y y y y 8 f 3.p.p.p.p.p.p.p.p.p.p.p.",
"p.p.p.p.p.p.p.p.p.p.3.* @ 5 y 8 y y 8 y 8 2 ) i.p.p.p.p.p.p.p.p.p.p.p.",
"p.p.p.p.p.p.p.p.p.p.i._ & @ > 7 y y 8 5 % U y.p.p.p.p.p.p.p.p.p.p.p.p.",
"p.p.p.p.p.p.p.p.p.p.p.i.[ & O X @ @ + O U i.p.p.p.p.p.p.p.p.p.p.p.p.p.",
"p.p.p.p.p.p.p.p.p.p.p.p.p.*.m ; * - : _ p.p.p.p.p.p.p.p.p.p.p.p.p.p.p.",
"p.p.p.p.p.p.p.p.p.p.p.p.p.p.p.0.:.2.i.p.p.p.p.p.p.p.p.p.p.p.p.p.p.p.p.",
"p.p.p.p.p.p.p.p.p.p.p.p.p.p.p.p.p.p.p.p.p.p.p.p.p.p.p.p.p.p.p.p.p.p.p."
};
