/* XPM */
static char *result[] = {
/* columns rows colors chars-per-pixel */
"35 32 158 2 ",
"   c #6C360A",
".  c #723A0B",
"X  c #733E13",
"o  c #0E4D01",
"O  c #174503",
"+  c #184604",
"@  c #194C04",
"#  c #1A4A0C",
"$  c #1A5303",
"%  c #1D5B03",
"&  c #1F520B",
"*  c #1C4814",
"=  c #264C0B",
"-  c #205905",
";  c #20570C",
":  c #215B0A",
">  c #214D10",
",  c #284D14",
"<  c #1F6302",
"1  c #1F6A01",
"2  c #226305",
"3  c #296707",
"4  c #216B01",
"5  c #25620B",
"6  c #24690A",
"7  c #247403",
"8  c #287305",
"9  c #267804",
"0  c #2A7A05",
"q  c #256212",
"w  c #286C11",
"e  c #2F7414",
"r  c #2D7018",
"t  c #317712",
"y  c #32761A",
"u  c #364F24",
"i  c #355B2E",
"p  c #346B22",
"a  c #39632D",
"s  c #3E7529",
"d  c #764011",
"f  c #7D4514",
"g  c #7C522E",
"h  c #4C7E39",
"j  c #4F7A48",
"k  c #527348",
"l  c #5A7C4F",
"z  c #707E59",
"x  c #814612",
"c  c #844914",
"v  c #8C4E15",
"b  c #89511D",
"n  c #945419",
"m  c #985618",
"M  c #8A5323",
"N  c #855329",
"B  c #925B29",
"V  c #875E3A",
"C  c #966437",
"Z  c #A66B34",
"A  c #926947",
"S  c #9C6F48",
"D  c #987355",
"F  c #A27146",
"G  c #9A7A63",
"H  c #2F8005",
"J  c #2C8509",
"K  c #2F8C0B",
"L  c #308807",
"P  c #308308",
"I  c #338E0C",
"U  c #34930A",
"Y  c #39950C",
"T  c #369B0F",
"R  c #39A210",
"E  c #3DAB12",
"W  c #439B08",
"Q  c #53B109",
"!  c #44BD16",
"~  c #51A92F",
"^  c #4EBD24",
"/  c #46C515",
"(  c #48C618",
")  c #56C62B",
"_  c #77C43C",
"`  c #61944F",
"'  c #648155",
"]  c #74A85B",
"[  c #798E6B",
"{  c #7E9571",
"}  c #7D9B72",
"|  c #7EA66F",
" . c #71D04F",
".. c #77C958",
"X. c #7CC85E",
"o. c #AF845C",
"O. c #868968",
"+. c #8D8D6E",
"@. c #9E906F",
"#. c #AF8864",
"$. c #A6866C",
"%. c #B68F6C",
"&. c #AD8F75",
"*. c #AB907E",
"=. c #BA9778",
"-. c #C09D7D",
";. c #81C351",
":. c #88C372",
">. c #B0978A",
",. c #97B78D",
"<. c #9DBD92",
"1. c #BDA792",
"2. c #A5B8A0",
"3. c #A9BCA2",
"4. c #C9AB90",
"5. c #C6B09D",
"6. c #C5B3A4",
"7. c #CBB5A2",
"8. c #CDBEAC",
"9. c #D1BDAA",
"0. c #CEBEB2",
"q. c #9DDE84",
"w. c #ABD190",
"e. c #AED09E",
"r. c #AEE19B",
"t. c #B1CAAB",
"y. c #B5DAA5",
"u. c #BDC9B8",
"i. c #BBE7A9",
"p. c #D3C4B7",
"a. c #C6E9B7",
"s. c #CEE7BB",
"d. c #D6CAC2",
"f. c #D9CCC4",
"g. c #C5D7C0",
"h. c #C9D7C4",
"j. c #D1D8CE",
"k. c #E6D7C9",
"l. c #E3D8CE",
"z. c #E3DBD5",
"x. c #D8E4D4",
"c. c #DDE5DA",
"v. c #DEF3D6",
"b. c #DFF1D9",
"n. c #EAE2DA",
"m. c #E5F4DD",
"M. c #E4EAE3",
"N. c #EEEAE5",
"B. c #ECEBE6",
"V. c #F3EFEB",
"C. c #ECF6E8",
"Z. c #EEF7E8",
"A. c #F2F2EE",
"S. c #F5F5F3",
"D. c #F9F6F4",
"F. c #F5F9F3",
"G. c #FAFAF6",
"H. c #FFFFFF",
/* pixels */
"H.H.H.H.H.H.H.H.H.H.H.H.H.H.H.H.H.G.Z.a.m.H.H.H.H.H.H.H.H.H.H.H.H.H.H.",
"H.H.H.H.H.H.H.H.H.H.H.H.S.F.H.H.v.q. .( ) i.H.H.H.H.H.H.H.H.H.H.H.H.H.",
"H.H.H.H.H.H.H.H.H.H.H.x.` | y.b...E E K E  .G.H.H.H.H.H.H.H.H.H.H.H.H.",
"H.H.H.H.H.H.H.H.H.H.G.<.1 1 7 T U 1 1 J ^ i.F.H.H.H.H.H.H.H.H.H.H.H.H.",
"H.H.H.H.H.H.H.H.H.H.G.3.6 7 J T J 7 1 T E ) r.F.H.H.H.H.H.H.H.H.H.H.H.",
"H.H.H.H.H.H.H.H.H.H.F.} 6 K ! / / R 9 9 7 K ~ X.:.S.H.H.H.H.H.H.H.H.H.",
"H.H.H.H.H.H.H.H.H.H.i 2 7 E ! ! J 1 1 1 1 1 1 2 4 e g.H.H.H.H.H.H.H.H.",
"H.H.H.H.H.H.Z.s.M.F.# 1 2 4 7 J 1 % % % 1 4 6 P 0 t ,.H.H.H.H.H.H.H.H.",
"H.H.H.H.H.G.w.~ _ ;.- @ $ 3 4 2 2 4 $ : P 0 I U 0 Y ] e.C.H.H.H.H.H.H.",
"H.H.H.H.H.S.] 0 0 8 W W Q 2 2 4 @ $ 8 U Y L 7 9 4 4 H I y.G.H.H.H.H.H.",
"H.H.H.H.H.M.} < < 1 4 8 H - @ @ + O 4 0 9 4 1 1 4 1 < % 6 c.H.H.H.H.H.",
"H.H.H.H.A.j 5 < < 4 4 4 < % O + + O < 7 4 4 1 1 4 % < % q c.H.H.H.H.H.",
"H.H.H.H.c.o 1 1 < 4 4 4 4 4 < < % $ 4 4 1 1 1 < 1 1 < w t.H.H.H.H.H.H.",
"H.H.H.H.G.k a l p 1 % 4 4 4 1 4 : , > 4 1 < & + 1 1 1 y g.H.H.H.H.H.H.",
"H.H.H.H.H.S.M.u.s $ $ 2 4 4 % q O.@.z : & ' O.[ p ` q r g.H.H.H.H.H.H.",
"H.H.H.H.H.H.H.B.l * [ ; @ = { +.B.4.8.h u 1.k.S.c.c.3.2.A.H.H.H.H.H.H.",
"H.H.H.H.H.H.H.H.G.G.G.j.h.S.A g 6.5.8.0.S D.H.H.H.H.H.G.H.H.H.H.H.H.H.",
"H.H.H.H.H.H.H.H.H.H.H.H.H.H.B.$.V *.D B n.H.H.H.H.H.H.H.H.H.H.H.H.H.H.",
"H.H.H.H.H.H.H.H.H.H.H.H.H.H.H.V.&.c x b H.H.H.H.H.H.H.H.H.H.H.H.H.H.H.",
"H.H.H.H.H.H.H.H.H.H.H.H.H.H.H.G.6.. f B H.H.H.H.H.H.H.H.H.H.H.H.H.H.H.",
"H.H.H.H.H.H.H.H.H.H.H.H.H.H.H.H.0.x x Z H.H.H.H.H.H.H.H.H.H.H.H.H.H.H.",
"H.H.H.H.H.H.H.H.H.H.H.H.H.H.H.H.0.X c F H.H.H.H.H.H.H.H.H.H.H.H.H.H.H.",
"H.H.H.H.H.H.H.H.H.H.H.H.H.H.H.G.5.  x o.H.H.H.H.H.H.H.H.H.H.H.H.H.H.H.",
"H.H.H.H.H.H.H.H.H.H.H.H.H.H.H.D.$.x x %.H.H.H.H.H.H.H.H.H.H.H.H.H.H.H.",
"H.H.H.H.H.H.H.H.H.H.H.H.H.H.H.V.A n c #.H.H.H.H.H.H.H.H.H.H.H.H.H.H.H.",
"H.H.H.H.H.H.H.H.H.H.H.H.H.H.H.V.N c d S H.H.H.H.H.H.H.H.H.H.H.H.H.H.H.",
"H.H.H.H.H.H.H.H.H.H.H.H.H.H.H.z.f v c M D.H.H.H.H.H.H.H.H.H.H.H.H.H.H.",
"H.H.H.H.H.H.H.H.H.H.H.H.H.H.H.5.. x v x 9.H.H.H.H.H.H.H.H.H.H.H.H.H.H.",
"H.H.H.H.H.H.H.H.H.H.H.H.H.H.G.A d c m v V G.H.H.H.H.H.H.H.H.H.H.H.H.H.",
"H.H.H.H.H.H.H.H.H.H.H.H.S.f.G   X m m v m -.n.G.H.H.H.H.H.H.H.H.H.H.H.",
"H.H.H.H.H.H.H.H.H.H.H.S.d.>.>.D X N B x C =.7.l.G.H.H.H.H.H.H.H.H.H.H.",
"H.H.H.H.H.H.H.H.H.H.H.H.S.G.G.S.z.n.n.p.N.D.H.D.H.H.H.H.H.H.H.H.H.H.H."
};
