/* XPM */
static char *result[] = {
/* columns rows colors chars-per-pixel */
"35 32 159 2 ",
"   c #603E28",
".  c #64422D",
"X  c #70472D",
"o  c #75523B",
"O  c #65584C",
"+  c #735C4D",
"@  c #6F5C50",
"#  c #875535",
"$  c #8E5936",
"%  c #82573B",
"&  c #8E5C3B",
"*  c #965E39",
"=  c #9B623C",
"-  c #A2663D",
";  c #A7693F",
":  c #AB6B3F",
">  c #946443",
",  c #9C6642",
"<  c #9B6845",
"1  c #936548",
"2  c #9D6C4A",
"3  c #8F6D54",
"4  c #8B6E5D",
"5  c #9C7152",
"6  c #93725C",
"7  c #987358",
"8  c #A36A43",
"9  c #AC6D41",
"0  c #B06F43",
"q  c #AF7146",
"w  c #A77049",
"e  c #B17245",
"r  c #A47252",
"t  c #AB7957",
"y  c #A57858",
"u  c #B27951",
"i  c #BB7F55",
"p  c #857164",
"a  c #80736A",
"s  c #897768",
"d  c #907463",
"f  c #927E6C",
"g  c #867A73",
"h  c #8C7B70",
"j  c #958276",
"k  c #96877E",
"l  c #AE8464",
"z  c #AE8368",
"x  c #AC896E",
"c  c #B48562",
"v  c #BE8B65",
"b  c #B98B68",
"n  c #A58571",
"m  c #AC8973",
"M  c #A48D7C",
"N  c #B08F75",
"B  c #A4917E",
"V  c #AC957F",
"C  c #B49477",
"Z  c #B99071",
"A  c #B0917A",
"S  c #C38C63",
"D  c #C48E68",
"F  c #CD9871",
"G  c #CB9D7A",
"H  c #D4A47E",
"J  c #8D8580",
"K  c #A39385",
"L  c #AF9787",
"P  c #A09288",
"I  c #AD9A8A",
"U  c #B59C85",
"Y  c #A39994",
"T  c #AB9D92",
"R  c #BEA48C",
"E  c #AAA098",
"W  c #BBA794",
"Q  c #B7A79B",
"!  c #BBAA9A",
"~  c #A5A2A1",
"^  c #ABA6A4",
"/  c #AEA9A6",
"(  c #B0A7A2",
")  c #B9ABA1",
"_  c #B3ADAA",
"`  c #B8B5B4",
"'  c #BCB9B9",
"]  c #C0A58D",
"[  c #D4A682",
"{  c #C6AA93",
"}  c #C4AE9B",
"|  c #D4AF91",
" . c #CBB197",
".. c #CEB399",
"X. c #DFB492",
"o. c #D3B59A",
"O. c #D6B99E",
"+. c #E0B491",
"@. c #E4BC9B",
"#. c #C0B1A4",
"$. c #CDB5A0",
"%. c #C6B9AB",
"&. c #CCBAAA",
"*. c #D3BBA6",
"=. c #DCBEA3",
"-. c #C5BCB4",
";. c #CBBFB6",
":. c #E8C19F",
">. c #DEC1A4",
",. c #DEC4A9",
"<. c #CAC2BD",
"1. c #DBC7B3",
"2. c #E7C3A3",
"3. c #EAC4A3",
"4. c #E5C6AA",
"5. c #E5C9AF",
"6. c #EACBAE",
"7. c #F1CDAD",
"8. c #EDCEB0",
"9. c #E6CEB9",
"0. c #ECD0B2",
"q. c #F6D5B6",
"w. c #F8D7B7",
"e. c #F4D6B8",
"r. c #F8D7B8",
"t. c #FADABA",
"y. c #B6BAC6",
"u. c #CDC7C2",
"i. c #CFCAC7",
"p. c #C8C7C8",
"a. c #CECBCB",
"s. c #D1C8C2",
"d. c #D2CECC",
"f. c #D9D0C9",
"g. c #CAD1DC",
"h. c #D5D3D3",
"j. c #DAD7D5",
"k. c #D1D3DA",
"l. c #D8D7D8",
"z. c #DDDCDC",
"x. c #E5D3C2",
"c. c #E4D5C8",
"v. c #E1DDDB",
"b. c #F3E0CD",
"n. c #E3E1DE",
"m. c #DDDEE1",
"M. c #E4E3E3",
"N. c #E8E7E7",
"B. c #EAE8E6",
"V. c #E6E7EA",
"C. c #E7E8EA",
"Z. c #EDECEC",
"A. c #F1EFEE",
"S. c #F2F1EF",
"D. c #F4F4F3",
"F. c #F9F6F4",
"G. c #FAF9F7",
"H. c #F6F7F9",
"J. c #FFFFFF",
/* pixels */
"J.J.J.J.J.J.J.J.J.J.J.J.J.J.J.J.J.J.J.J.J.J.J.J.J.J.J.J.J.J.J.J.J.J.J.",
"J.J.J.J.J.J.J.J.J.J.J.J.J.J.J.A.i.D.J.J.J.J.J.J.J.J.J.J.J.J.J.J.J.J.J.",
"J.J.J.J.J.J.J.J.J.J.J.J.G.F.Y 4 @ _ D.J.k.g.J.C.V.J.J.J.J.J.J.J.J.J.J.",
"J.J.G.M.M.G.G.J.J.J.J.D.P + ;   O J Z.G.m.H.J.y.m.J.J.J.J.J.J.J.J.J.J.",
"J.J.J.D.l.l.M.l.z.D.D.Q 2 e 9 ; , # d ! J.J.J.J.J.J.J.J.J.J.J.J.J.J.J.",
"J.J.J.J.J.J.G.Z.M.D.k < : e F c 8 * 9 8 M J.J.J.J.J.J.J.J.J.J.J.J.J.J.",
"J.J.J.J.J.J.J.J.J.` v +.H 3.t.] W x - 9 8 f V.y.H.J.J.J.J.J.J.J.J.J.J.",
"J.J.J.J.J.J.J.J.Z.A r.w.w.w.w.4.{ { Z 0 : t <.V.J.J.J.J.J.J.J.J.J.J.J.",
"J.J.J.J.J.J.J.J.<.e.e.r.q.w.q.q.4.o.2.S 9 = j B.J.J.J.J.J.J.J.J.J.J.J.",
"J.J.J.J.J.J.J.B.T 8.r.e.w.e.t.U O.6.0.+.- M 0.#.D.J.J.J.J.J.J.J.J.J.J.",
"J.J.J.J.J.J.Z.) U 6.w.w.e.q.R 2.w.w.w.:.9 ] ..$.D.J.J.J.J.J.J.J.J.J.J.",
"J.J.J.J.J.J.M.W  .{ =.q.e.R R ! } 6.w.7.e c ,.} D.J.J.J.J.J.J.J.J.J.J.",
"J.J.J.J.J.G.M.W { g a V r.{ j.S.B.x.q.r.H = o <.J.J.J.J.J.J.J.J.J.J.J.",
"J.J.J.Z.B.l.h.^ I F.B.P e.b./ G.G.c.8.q.@.: < ;.J.J.J.J.J.J.J.J.J.J.J.",
"J.J.J.D.D.D.Z.s.$.u.%.$.e.9.j.D.n.1.q.q.X.: y v.J.J.J.J.J.J.J.J.J.J.J.",
"J.J.J.J.J.J.J.f.5.e.6.w.w.q.*.L W q.e.r.S - I D.J.J.J.J.J.J.J.J.J.J.J.",
"J.J.J.J.J.J.J.z.1.q.q.4.0.0.=.O Q w.q.[ 8 n A.J.J.J.J.J.J.J.J.J.J.J.J.",
"J.J.J.J.J.J.J.H.d.&.*.M B L L C x R l $ h Z.G.J.G.N.G.J.J.J.J.J.J.J.J.",
"J.J.J.J.J.J.J.J.G.A.B.v.K , 5 , 2 = - ; 6 G.G.G.G.d i.J.J.J.J.J.J.J.J.",
"J.J.J.J.J.J.J.J.J.J.J.D.U G t.> q : : q w ' d.Y @ u d.J.J.J.J.J.J.J.J.",
"J.J.J.J.G.J.J.J.J.J.J.Z.{ @.e.N = = $ - : % 1 z m E z.D.J.J.J.J.J.J.J.",
"J.J.J.J.J.J.J.J.J.J.J.D.*.2.e.8.o.b ; : : r ` B.A.' a.i.D.J.J.J.J.J.J.",
"J.J.J.J.J.J.J.G.D.B.J.v.K O.w.e.q.H : : 9 l D.J.Z.^ M.h.B.J.J.J.J.J.J.",
"J.J.J.J.J.D.N.z.M.D.<.L ..| 7.q.:.S : q 9 l i.z.~ l.l.p.D.J.J.J.J.J.J.",
"J.J.J.J.G.D.D.D.G.N.f U >.3 y D i e 9 9 9 c E d.m.h.' m.J.J.J.J.J.J.J.",
"J.J.J.J.J.J.J.J.J.D.s 6.q.U & X . + 1 - > p _ M.N.C.h.J.J.J.J.J.J.J.J.",
"J.J.J.J.J.J.J.J.J.J.p.o.4.t.7 2 ) J.Z.p.M.M.l.h.h.j.D.J.J.J.J.J.J.J.J.",
"J.J.J.J.J.J.J.J.J.J.G.;.>.q.R ( J.J.G.C.B.D.z.z.D.H.J.J.J.J.J.J.J.J.J.",
"J.J.J.J.J.J.J.J.J.J.J.D.-.{ T D.J.H.Z.D.J.J.J.J.J.J.J.J.J.J.J.J.J.J.J.",
"J.J.J.J.J.J.J.J.J.J.J.J.J.J.J.J.D.D.J.J.J.J.J.J.J.J.J.J.J.J.J.J.J.J.J.",
"J.J.J.J.J.J.J.J.J.J.J.J.J.J.J.J.Z.G.J.J.J.J.J.J.J.J.J.J.J.J.J.J.J.J.J.",
"J.J.J.J.J.J.J.J.J.J.J.J.J.J.J.J.J.J.J.J.J.J.J.J.J.J.J.J.J.J.J.J.J.J.J."
};
