/* XPM */
static char *result[] = {
/* columns rows colors chars-per-pixel */
"75 75 178 2 ",
"   c #1A361E",
".  c #1E3B1F",
"X  c #132B20",
"o  c #182F23",
"O  c #163524",
"+  c #1A3523",
"@  c #163A25",
"#  c #1C3C25",
"$  c #16342C",
"%  c #1B352C",
"&  c #173928",
"*  c #1C3C2C",
"=  c #173730",
"-  c #1E3434",
";  c #1D3C31",
":  c #1C333A",
">  c #1E3B3B",
",  c #213E26",
"<  c #21362B",
"1  c #223D2C",
"2  c #213634",
"3  c #233D34",
"4  c #223539",
"5  c #243C3A",
"6  c #283F3C",
"7  c #1E4125",
"8  c #1E422C",
"9  c #174031",
"0  c #1D4233",
"q  c #1F4934",
"w  c #1D4439",
"e  c #1E4A3B",
"r  c #234425",
"t  c #284727",
"y  c #254927",
"u  c #294C26",
"i  c #23442C",
"p  c #29462D",
"a  c #254A2C",
"s  c #2A4C2C",
"d  c #304F2E",
"f  c #2D5027",
"g  c #27512E",
"h  c #2C532D",
"j  c #2E582E",
"k  c #31552D",
"l  c #335B2D",
"z  c #385E2D",
"x  c #244433",
"c  c #294534",
"v  c #254B33",
"b  c #2B4C33",
"n  c #26443A",
"m  c #2A453B",
"M  c #254C39",
"N  c #2C4C3A",
"B  c #314D36",
"V  c #314D3B",
"C  c #275133",
"Z  c #2C5333",
"A  c #2E5934",
"S  c #27523C",
"D  c #2D533A",
"F  c #2E5A3B",
"G  c #325534",
"H  c #345B34",
"J  c #395D34",
"K  c #33543B",
"L  c #39573C",
"P  c #345B3B",
"I  c #395C3B",
"U  c #2E612D",
"Y  c #36612E",
"T  c #3A642E",
"R  c #3E692E",
"E  c #2F613D",
"W  c #366233",
"Q  c #3B6433",
"!  c #3D6A34",
"~  c #35623C",
"^  c #3B633B",
"/  c #37683B",
"(  c #3D6A3B",
")  c #3F703C",
"_  c #416C2F",
"`  c #416635",
"'  c #426C34",
"]  c #41663B",
"[  c #426C3A",
"{  c #457234",
"}  c #4A7535",
"|  c #4B7B35",
" . c #44723A",
".. c #49743A",
"X. c #477A3E",
"o. c #4D7B39",
"O. c #527C3B",
"+. c #254541",
"@. c #2B4441",
"#. c #264A42",
"$. c #2C4C41",
"%. c #2B4C48",
"&. c #314D42",
"*. c #255241",
"=. c #2D5342",
"-. c #2D5B42",
";. c #27564B",
":. c #2C5349",
">. c #345441",
",. c #385740",
"<. c #345C41",
"1. c #3A5C42",
"2. c #32544C",
"3. c #355E4D",
"4. c #3A5E48",
"5. c #2D6642",
"6. c #356341",
"7. c #3B6442",
"8. c #356A41",
"9. c #3C6B43",
"0. c #3C654A",
"q. c #34684B",
"w. c #3E6C4A",
"e. c #367345",
"r. c #3D7244",
"t. c #3D7A47",
"y. c #377648",
"u. c #3B7249",
"i. c #377C48",
"p. c #3B7C49",
"a. c #356353",
"s. c #3A6B51",
"d. c #3C6F59",
"f. c #34745C",
"g. c #405E43",
"h. c #426642",
"j. c #416D44",
"k. c #496E40",
"l. c #40674A",
"z. c #426D4E",
"x. c #437344",
"c. c #4A7645",
"v. c #467944",
"b. c #4A7C45",
"n. c #43744A",
"m. c #4B7748",
"M. c #447B4A",
"N. c #4C7B4A",
"B. c #457654",
"V. c #497951",
"C. c #44766C",
"Z. c #4E8036",
"A. c #528236",
"S. c #54833B",
"D. c #5E8C3E",
"F. c #60933C",
"G. c #3D804B",
"H. c #468543",
"J. c #4D8445",
"K. c #46814E",
"L. c #4B834D",
"P. c #458B4E",
"I. c #4B884F",
"U. c #508542",
"Y. c #52854B",
"T. c #538848",
"R. c #5A9147",
"E. c #4A8453",
"W. c #4D8B52",
"Q. c #4F875A",
"!. c #488A5C",
"~. c #548A52",
"^. c #598F5D",
"/. c #479954",
"(. c #4B9B54",
"). c #519253",
"_. c #5A9250",
"`. c #629356",
/* pixels */
"a a D X.Z * v v v / H S Q a i ; 8 i a s a g A g j ! A a v / | l j j A A f h b a p i ` k 1 1 B p c P c [ Z =.<.# + y j 7 7 7 @ 7 i T i u C y g G r y r ",
"^ H ~ X.A v 0 ~ F P S Z ~ b v D v 8 A Y a i 8 a a g { ! S ~ Y T j j g g ) Q [ K p 1 k G i d G k p G b D D =.x   . y 7 7 7 @ g a O ! Y 7 g ! h 7 O a l ",
"S v S A a b ; F b v P ~ P H a A Z x F Z s v @ v S g W | l s H ! a u C A l G V c 3 p B c d z z d r H H B b 8 y 7 r j y 7 # @ # 7 8 g g 7 7 { R Y y g Q ",
"v 0 S ~ S 0 v n.7.P A H ~ b a G H D C * 8 v 8 8 a j W W G a k i * g g ! Y p V G b b G I G G p p s J I J Y y R 7 7 f f r f f y j y 8 i 8 a ! ! | s 8 v ",
"M 0 E ~ i.S 1 F P ~ H ~ F x x a D v v i * p v i i h J Q Z G b x x J G a W b B ] ` G N x.] J d ^ z l p k { R { f 7 7 7 a j i 7 { y y g s i s f W 8 v S ",
"M F G.8.i.F D F P 6.A b b Z P v x x * Z Z a G k h b Z G D N 3.>.G ' G N n 3 3 m K B K G m.I s b J T z T j l R a y h y y g 7 7 { g W W 8 8 * g b v 0 v ",
"8.6.e.8.I.M.P H j.n.D x v Z H A x A h J ! a s h ! a G J x $.:.> #.L L K 6 B B m D V P ( c.G k J s u s Y h y y 7 f R j f j f f j s A | H v 8 Z H 0 * v ",
"n F 8.y.x.8.N P P 6.b G a 8 a Z 0 Q ! G ! J 8 8 ! k ` G n n +.+.#.&.V L m  .` b c b c D G G G h , , u f y 7 a Y r y j j T { A i 8 8 W g a D D b * 0 n ",
"D n.F /.t.b K / <.K b P v # * 0 8 D ! v H / a x H b G c @.>.m +.1.N V g.>...` m m x c I I  .T.l s   u Y f f y j y + f j U Y 7 7 A q v A A A M v * n D ",
"D F D M.8.n [ ^ ^ X.D b G Z i S C S Z a Z  .o.] G x c n K K n %.7...>.,.@.B V V.z.6 c P b j.Y.H k & r a h j r 7 f Y y y T { A g A 7 a W W v W S F b D ",
"x D D K N M I ^ [ ] P n A s * X.X.~ F ^ ! Z  .{ d x B G G ` K 1.L O.g.&.6 4 V Q.z.B G b p b H h ! I g u a ( Z # u R y f T ! W A S a v H C H ! ~ ~ N n ",
"M v =.7.K G  .X.^ P ^ D v 8 $ C | A q / Y a W ( I c K ..J G ^ o.I B V m m 6 >.7.B J G c c b a ( b./ h h h ! h r 7 Y 7 T { a j j a A } H S ! W v b F b ",
"c N <.7.D N K G [ ^ N b D b 8 8 A Z v ! h Z } H 9.~ ] ] G V L ] ` 6 V V 1.K >.,.I E.!.I b ] I ~ G i g ! _ s k l r j y g U i 8 y 8 A  .{ P H H H 8 a P ",
"c N D N N n K K G I N A ' S Q W v Z Z } { Z ! I G 6.J J L ] K m m 6 ,.K L L K m N j.E.~ I L.L.H v p W W ' l y u y s W y O 8 # & h W A g 8 v H H b n M ",
"..^ N ^ D K I D N ^ ^ A { s * 0 i A } ! ! A P j.j.K K P 6.[ K +.$.@.,.1.V 4.<.5.j.L.j.K H v.v.Z s S A g W H a h Z W  .W l H g * s } H a 0 F b x N N 1.",
"^ X.G Q G M D P P G { Z A s 0 v Z A { ! D G ^ 7.m.N I 7.V ,.l.#.4.,.N N K 4.N 8.D 7.P P ~ ( m.~ a A A A H A h Q H.l U ! ) H g a 8 s h v ! ^ N M D P I ",
"b K F n a n b A ^ ' } k i x v l ! ' H D x b P A ^ K 7.~.P K ,.$.>.z.0.n x b K 1.x.7.G L.r.v Z C F W A r.) v./ W ) / g u H a 7 a i * 8 a Q Z Z A =.n N ",
"^ H N x b J d b G Q ' A 8 v b * * i * ; i G H H I I m.N.l.K m N =.N s.-.V K P 6.M M D / Z a i v ~ C C S E ~ X.l /  .g y W j a 8 a a Z a u a D b N P A ",
"O.^ G n ` ' a P a b H n 0 b D * * x x x a J ' G a ~ j.1.K L V j.7.V V =.' { k x x <.I b j.Z 8 0 ( S S g W ( ( j W A W j g j g 8 g g ! j a S g i M I  .",
"[ P D J G k D H v a Q G J ' H * 0 b i 8 c G ^ G c K 6.j.N.7.I N.D N V M Q d * v ~ ^ ( F ~ i v C ( v C H / v.H S ) W H.! y 7 W j j ! T j x Z E D K P 7.",
"6.G i b G G G G I G G G ^ s x v J D 1 x 1 1 b G J P m.[ m.m.K ~ K b c 7.I * % * v ! J P a s W v F 8 A P ) J.C ( J.j v.) Y q 7 g # A j g H g C D P ~ 9.",
"% i 1 * b x.x b ] K ! J G K x n c 3 ; c c 1 c s G P ^ K J I K x.~ K H c.b b H H ^ I K K P { W C v A Z / A v.^ 9.v./ Z A j g 8 f ! g g q Z v b v D b 0 ",
"* * c Q a P b 1 B G G ' ` K ,.1.n 3.C.2.3 c c b I K H G p P b ^ ] b b { k Q o.G I ` ' B b J a Z a C a q S P C A / ( v.A g j W g } | / g i h W x i 8 ; ",
"Q x x H b b b i c b B ` { K K 1.D N 3.$.N $.x I x.7.^ j.Z ~ ~ ~ H.H 1 Q Q z Q n c V I b c g S 8 C i 8 8 8 W A v F H A s g 8 a 8 R | j Y h G { g D 9.v ",
"H b 0 7.M.P P G H G L L J m x b ] ^ ^ I V $.3 - I Y.m.~ F H D b D i x ^ G d b c M j.P P b p S q C v g q 0 ) v.A v.H v g g a a * W R Y { ! A S Z ~ D i ",
"7.6.v 8.~.8.9.K H K ^ ^ m m P c K ' ] ] ,.V > 1 b K G K p G G s b i x j.N 3 c K m._./ K H i v 9 q C 7 8 8 x./ g x.~ v H Z a i 8 f j j W C C w w 0 * x ",
"P v x S / I I c B B V K >.L K K I G J V V >.K G c p c s J m.` H H s x G m x V ] n.9.9.x.D p u g 9 C 8 8 F A v g Z ~ a i Z a v s i l j Z C v w M C 0 8 ",
"D x D 9.j.K b b g.L L >.m h.L &.^ I c m L V B ` J p < p N.`.c.] G G p P ^ G 6.x.7.F v.r.D G g } g C j 8 C 8 a Q g p & 0 a s 8 * l ! j H H F S A P v D ",
"v a b H Z p c B L m L V m &.=.I I K m c m c 3 p B b K b ] m.Y.c.Q { l I U.H D G x c A ~ F ! j W j C A l x 0 C ! Z * Z Z v u i 8 g ! g W H G G Z F N 0 ",
", i s G p G G K V V ,.V @.V V ] I K K 1.V 3 c 3 x 1 3 W G c I G B z Y A X.H v b * i x ~ S j A s 7 g ! j C E / C h C H v 8 S H 8 O a s Z Z G Z G v v 0 ",
"p a a s b b { G ^ ..L m &.1.,.$.I I V m V c B K c.b c H a 1 p G ! G u a Z b * i x Z s Z l s a 7 8 A W E ~ W.H./ H C W / A S C 8 & 8 8 i s ^ b h h ~ b ",
"v Z s i a p J Q } ..6 4 +.m m 5 m V @.V m I B I N.m.b x s d b J ] b i & i b ; * v P / ! } ! A C q F ) F 8.).8.A ( S a Z g 8 8 C a q C x a Z a Z k Q H ",
"D i r y t i h G ! I K V +.N <.0.=.m N l.V I ' J j.n.K I ' { H A G A P x C F 9.D Z a ~ A / v w 9 v W ).E S 8.v F r.a 8 * g H 8 a q g g C S v D s / b b ",
"a +   r f h s p b ! O.^ N m c I 4.6 : 0.K N b 1 K 6.G ..O.A.' h x 7.9.D n.9.v.x.Z H A ~ 9.v ; -.F F I.r.v v 8.~ v 8 * 8 g { a q 7 q g W S S P b I A =.",
"# . y j r y s s G | ' K >.` B - > 3 m <.D K b < H K D I ' ! Z D F ( 9.v u.M.r.8.v Z F A ( ~ u.M.S q 8.F 8 8.W.0 8 9 8 v v W g g 8 7 g q A 8.S Z I D x ",
"Y 7 r h u y p b J G x x b } ~ <.#.N <.N P R. .H | N S P G b H I D Z v i 9.9.M.<.~ v i S P.K.K.5.e w v v a r.8.8 * a C C v h g ! T g 8 8 C r.Z s X.G 8 ",
"{ y 7 r u Y z p J b c x b P D 1.N <.w.N D ( o.{ ! n ~ X.Q P Q Q n i b 8 x ~ n.F b v i v I.u.F *.S v S a 8 D C s W s A 8 8 h a j j A j ! s A Z Z ! ] j ",
"j y 7 r r k s % h h x b D A b M -.D F M 3 c Q G Q Q H G P [ b i s * 8.7.F M.n.5.v F * # F M v 9.F 9.~ x = 8 q s ! g g C a 8 j j 8 q A Z.T a g H l l l ",
"y , r h , < 1 $ * ; b b v D D v S v x n H T s a H ! G D ( U.Z Q H ~ u.u.8.w.W.6.9.8.= & C S P w.v P 9.p v x i 8 f s a s h 8 H H W j F / R T k h f j Y ",
"l , # t p l p * i x D ~ P <.-.x = ; =.C ` Q b z Q Z P ^ Q ^ ' S.P 8.r.p.y.P t.<.8.v M 0 v P D 7.6.D 6.D F D x Z ! A s 7 8 C C j Z.W A H Q U g l C A ) ",
"p a l d G k 1 % i Z G A D 0 e v b M M 0 0 p 0 D Q P G G P I ..` x v 8.e.5.M S 0 F C 0 = v 8.M 9.9.7.D D G H b M q 8 b s @ v C j W ! a u W a i h S F a ",
"i z J s H b a b i { H & 0 0 *.S x x = * * 0 w ; M P j.G P I H n $ M G.8.q w w w 9.E G.0 v 7.<.K K n.=.x H ~ W A v * 8 D 7 0 g l R Y h R h * a y q F F ",
", t h ! ` s i b a Z Z ; b 8 0 S 0 D & x v * = C D e F K n.6.x x % M F S C D 6.u.e.e.y.v D ~ u.u.6.7.n w #.v S v 0 * 1 Z W s a g Y H Z W h i y u g -.S ",
", , a t a i s ` { s * a Q A W ~ v D ; = i 0 v v S *.w P b v 3 0 n I v x x M 6.r.t.y.M.F A I n.w.D N n :.-.N N p G h g b l h h Q h g W { k t a s a C ; ",
"s G a h h i s H Z p 8 8 * C Z F ~ v x ^ A * * * 6.M.F j.I b ,.N N I b * w F F 5.8.t.L.9.P I n.0.M b N w.=.N M n x 1 H G b * a h h G J H a p r h l ( h ",
"b G r u y a ( [ x x v Z Z C A F P D 0 b ^ G $ $ x 6.n v P b ~ D v D ; ; v 3 =.9.y.P.P b D P P b D P D K m K ,.n b x [ ' v % i z ! b a u h h , h J h A ",
"s # . Y h # Z b * v H a ! D S ~ v M w x ^ H x * v ( x 3 S. ./ K M K n w D b 9.G 8.(.F D [ <.^ I N K N n N >.I ] I .. .G G x , G Y s l z k h i a Q a <.",
"r # r u h r & Z b 0 H a H 8 8 Z S F x v D D b v v D x ; J [ K N M 7.9.P M n b D P 6.n b  .^ X.! N K V 6 m m K [ ..[ J J [ 1 i p i p Q ' l ( H i p b <.",
"l r y k h l i i i * p 8 Z * $ i H P v v x = x b n D J J Z H P K P D P K n n N D D K N G  .( I 1.>.V >.m 3 3 m c B K K G a 1 G ` z s k J s J s t z Q s ",
"T r y l Y h r s * p < s H a l J x i 0 * x x 8.G ~ M D H G [ ^ <.F v v v P D v N 0.7.N ^ [ 7.] K M 3 c V V m 3 * c K V B b D b z J T a J k z z k z k u ",
"_ Y y l _ r r k a D * v i 0 s Z ^ x * 8 x P F 6.m.K -.N 7.7.S >.P X.Z i b v n G K K N m N K [ I V N 3 N V b B 1 L ] P B G =.N , J T G p t t H k h k h ",
"k u _ T ! f # # i D v D.! s ! H / b P v * 7.7.v n.N.n.M D K P 6.7.! D N N P I N D D M D ^ K V <.^ V K B c 3 c K x.P V b b b b x J k H b b h G J ' Q Y ",
"u u _ z r f T k O * # } F.! { a D x Z x 3 x D b K P n.N b <.D q.<.x c K <.^ o.^ P ! N K K K V H  .] ] V m c P K P I c 3 b J J b b G N j.P p ' ` H h Q ",
"a f z r r z T k a i l W ! l l h s b i n A ; * 3 x D 7.1.N q.S F P D -.N K K ^ ] b I M n M w.N m J ] I ] ^ c I L 3 3 b c I I b $.N I K 7.K L b ` ^ l t ",
"+   # # r y # a t i H { h 8 Y { p A n ; x b > * - n b D =.S v a b F N N m N M D n n N G i N K k.^ 6 m [ S.B p c c 2 >.,.m K m $.- M B 5 b K < 6 K G t ",
"r   r f , r i k s # * t s 8 l s p v c ; x K D G 1 x 6.0.f.S b Z b v M P ^ O.{ Q n M o.[ 3 c c J I 3 3 K ` B J ` B 3 3 N m n +.5 2 m L V c 1 m < 3 J Q ",
"k t   # , O # + # , # + * H D x x * x ; 2 - N K N K 7.u.<.v x v 6.v v D I [ ^ G G G O.G 3 b p L V c c 3 B B | ` B B B K c 5 4 V V 6 c L m m 6 c < d ` ",
", u r   # , r i s t i 3 K N K b 1 c b m 3 * m K K P <.=.P G D b C S P P ~ ] ^ b G I n v b Q I J G } z p ] ] ` L L ^ ` L 6 6 m V B L m V 6 6 B V 6 1 , ",
", t t . , h , k k t a x 0.m K K c 3 < x 3 B ] P B.w.>.N D =.I H v N b H b i v b 1 x J B p B J 3 c J ` s K I ` I L [ O.V 3 L 6 4 4 m L 6 2 V L B L c , ",
"k .   r s k y t p a z p :.N J c N B m c x V V 3 >.>.P P F N n b A v Z Z 8 * % s a b H J % + , 1 b , i i c V ` ] B K [ B 3 ' J 4 V ` L V 6 6 m 2 < 3 L ",
"t   . f h 1 + + p # J z 1 z ` n 6 b m : 3 - 3 m D 7.7.D D v v v ! l 8 s v Z a * ^ G x x 1 + k t b i p i < 2 c G ,.L L 3 4 ] ..m L V L } 6 6 2 2 B B d ",
". ,   k , + + o # < i s G ` N #.: 2 6 P ,.m #.=.n ,.^.0.S v ( H H A s H i G ( 1 v ~ H H I b k J s J k 1 , 1 c B 6 L V m m 6 L B 6 6 B L 6 V 6 L B 1 , ",
"i r , , + t s + , z k 1 k c 3 3 - m &.m m m ;.%.x c V.n.D D F H s A g a @ v P v D E.M.6.W.A 1 k J l } } z p c b c B B G ..B 6 m L G 6 6 @.&.V V 1 c J ",
"k + O * % i s k < % % < 1 c B b 6 m V N m ,.$.;.x 1 D <.D S q A g A a 7 y 9.u.v v w.M.9./ Z k , d p t ` G K 3.a.2.V V V z _ 1 V g.&.&.&.@.g.g.6 6 < B ",
"J u y g i r i J 1 3 % % i c 2 c V m ` ` 6 K ,.+.; x G b v C H g 7 g 7 f 7 7 8 0 S r.9.F 9.r.Z s y p h a a D >.:.$.V K N i a 8 n N >.m V V @.>.V 4 < B ",
"d t # k s k t < + % D n p c 3 L } I } B m m m 4 5 i a s b Z ! u 7 g f j 7 7 Z x F M.F v P ~ g Q a t J s J J p i B  .} ` i x N 2.$.m 2 6 m 4 L L 3 < < ",
"s a k u   # t , t < 3 M c J B K ^ ` L 2 2 V c c D b i D Z Z Q l j 8 7 7 @ X # i v v x A H v 8 a u s k v s ] B % 1 G ` ' f * >.@.m m ,.&.@.6 L 6 < B d ",
"i a z u u , k y t , % * p B 3 G V B ` G : G I 3 v N ; C a i h W U 7 7 7 7 O v S H M ; P n.K p J Q k h H W G i 1 3 c c c n x ,.m V m m.h.&.6 B p ` B < ",
"a , l l z u r t , x * c G c 1 ! g.` ..N : 3 c b v P A q 8 v 8 a y 7 7 7 A 7 $ x b x 3 b ~ h ] ! ] s k Q ( ! b 1 c b b V m B c L h.1.1.[ L g.,.V B 1 d ",
"} Y f Q k t , t a p < i 1 c c N ` G K +.N V x A S C C 8 C g s y q 8 7 7 C s N M b x x p G a H W H h k i 0 Z p 1 H J G J V g.G ^ h.L g.m ,.k.c c 1 < p ",
"u z g h J A G s 0 * 1 3 p L G 3 c b J G P G M K b 0 a C v U Q # @ 7 U 7 r Y / b b b b c ^ u * 8 8 s u # w e * a l G H G N I L B ` G L x n 3 3 B p < + ",
"z y a g f k Z h p D b 1 G G P * K K s c n ; N G Z a 8 @ g R l 8 @ 7 j f y / G i x b J K ^ G P D i r y Z =.; , , s Q G p a K B ^ G 3 3 3 2 - % < < 1 z ",
"k u Y h 8 Q / ) / v.K * x a b b 9.v a b D v D Z A l A f 8 g 7 7 & g 8 a A / P D , b G J b s H h Q k s p C x # , a h a i d s p J B < 1 c G b i k < s k ",
", u R H y g r.L.9.~ n 0 x D v v P x s v P v 8 g g j W H a g 7 8 # v v y W ~ ^ Q b G k s # 1 b A / a k k  .G p Z t t H r p i H ^ d < i J p G s J i i d ",
"y h Q R H i 9.r.v D A v D v * x S a ' l C j 9 8 a a s a j { ) g Z F d.A ! R W  .} k T z a P D s u y k J G k b Z t , a y , a a G i t 1 G x v [ k p p k "
};
